<svg xmlns="http://www.w3.org/2000/svg" width="1200" height="675" viewBox="0 0 1200 675">
<defs>
 <linearGradient id="bg" x1="0" y1="0" x2="1" y2="1"><stop stop-color="#07111f"/><stop offset=".58" stop-color="#0b1424"/><stop offset="1" stop-color="#080a10"/></linearGradient>
 <radialGradient id="g1"><stop stop-color="#8b5cf6" stop-opacity=".48"/><stop offset="1" stop-color="#8b5cf6" stop-opacity="0"/></radialGradient>
 <radialGradient id="g2"><stop stop-color="#22d3ee" stop-opacity=".32"/><stop offset="1" stop-color="#22d3ee" stop-opacity="0"/></radialGradient>
 <filter id="blur"><feGaussianBlur stdDeviation="38"/></filter>
 <pattern id="grid" width="38" height="38" patternUnits="userSpaceOnUse"><path d="M38 0H0V38" fill="none" stroke="white" stroke-opacity=".035"/></pattern>
</defs>
<rect width="1200" height="675" rx="38" fill="url(#bg)"/><rect width="1200" height="675" rx="38" fill="url(#grid)"/>
<circle cx="1000" cy="105" r="300" fill="url(#g1)" filter="url(#blur)"/><circle cx="125" cy="620" r="260" fill="url(#g2)" filter="url(#blur)"/>
<path d="M0 545C250 440 430 650 720 520c210-94 320-58 480-128v283H0Z" fill="#8b5cf6" opacity=".055"/>
<rect x="54" y="48" width="190" height="40" rx="20" fill="white" opacity=".075"/><circle cx="76" cy="68" r="5" fill="#8b5cf6"/><text x="91" y="74" fill="white" opacity=".84" font-family="Arial,sans-serif" font-size="14" font-weight="700" letter-spacing="1.5">GÜVENLİK</text>
<text x="54" y="185" fill="white" font-family="Arial,sans-serif" font-size="56" font-weight="800" letter-spacing="-1.6"><tspan x="54" dy="0">Dijital Kodlar</tspan></text>
<text x="56" y="290" fill="white" opacity=".66" font-family="Arial,sans-serif" font-size="24">Hediye kartı güvenlik rehberi</text>
<g transform="translate(250 95) scale(1.25)"><path d="M633 104l83 31v55c0 56-35 92-83 113-48-21-83-57-83-113v-55z" fill="white" opacity=".1" stroke="white" stroke-opacity=".4"/><path d="M603 190l21 21 43-52" fill="none" stroke="white" stroke-width="12" stroke-linecap="round" stroke-linejoin="round"/></g>
<rect x="52" y="570" width="1096" height="1" fill="white" opacity=".09"/>
<text x="56" y="617" fill="white" opacity=".62" font-family="Arial,sans-serif" font-size="18">Sky Bozum · Bilgi Merkezi</text>
<text x="1144" y="617" text-anchor="end" fill="white" opacity=".2" font-family="Arial,sans-serif" font-size="22" font-weight="700">V32.5 / 08</text>
</svg>