<svg xmlns="http://www.w3.org/2000/svg" width="1200" height="675" viewBox="0 0 1200 675" role="img" aria-labelledby="title desc">
<title id="title">MultiNet premium rehber kapağı</title><desc id="desc">Sky Bozum Bilgi Merkezi için kullanım noktaları ve temel bilgiler temalı kapak.</desc>
<defs>
 <linearGradient id="bg" x1="0" y1="0" x2="1" y2="1"><stop stop-color="#070a12"/><stop offset=".56" stop-color="#101725"/><stop offset="1" stop-color="#080b13"/></linearGradient>
 <radialGradient id="glow" cx="0" cy="0" r="1" gradientTransform="translate(945 295) rotate(145) scale(430 360)"><stop stop-color="#e11d48" stop-opacity=".52"/><stop offset="1" stop-color="#e11d48" stop-opacity="0"/></radialGradient>
 <linearGradient id="card" x1="0" y1="0" x2="1" y2="1"><stop stop-color="white" stop-opacity=".14"/><stop offset="1" stop-color="white" stop-opacity=".04"/></linearGradient>
 <filter id="blur"><feGaussianBlur stdDeviation="32"/></filter>
 <pattern id="grid" width="42" height="42" patternUnits="userSpaceOnUse"><path d="M42 0H0V42" fill="none" stroke="white" stroke-opacity=".035"/></pattern>
</defs>
<rect width="1200" height="675" rx="40" fill="url(#bg)"/><rect width="1200" height="675" rx="40" fill="url(#grid)"/><rect width="1200" height="675" rx="40" fill="url(#glow)"/>
<circle cx="1080" cy="110" r="110" fill="#fb7185" fill-opacity=".13" filter="url(#blur)"/>
<path d="M0 540C275 460 410 630 720 526c196-66 318-55 480-15v164H0Z" fill="white" fill-opacity=".025"/>
<g transform="translate(74 76)"><rect width="174" height="38" rx="19" fill="#e11d48" fill-opacity=".15" stroke="#e11d48" stroke-opacity=".5"/><circle cx="22" cy="19" r="5" fill="#fb7185"/><text x="38" y="24" fill="white" fill-opacity=".82" font-family="Arial,Helvetica,sans-serif" font-size="13" font-weight="700" letter-spacing="1.7">YEMEK KARTI</text></g>
<text x="74" y="209" fill="white" font-family="Arial,Helvetica,sans-serif" font-size="56" font-weight="800" letter-spacing="-1.8">MultiNet</text>
<text x="74" y="266" fill="white" fill-opacity=".62" font-family="Arial,Helvetica,sans-serif" font-size="24" font-weight="500">Kullanım noktaları ve temel bilgiler</text>
<g transform="translate(74 326)"><rect width="490" height="106" rx="27" fill="white" fill-opacity=".055" stroke="white" stroke-opacity=".09"/><circle cx="57" cy="53" r="30" fill="#e11d48" fill-opacity=".20" stroke="#fb7185" stroke-opacity=".7"/><text x="57" y="62" text-anchor="middle" fill="white" font-family="Arial,Helvetica,sans-serif" font-size="23" font-weight="800">MN</text><text x="107" y="47" fill="white" fill-opacity=".92" font-family="Arial,Helvetica,sans-serif" font-size="16" font-weight="700">Güncel ve anlaşılır rehber</text><text x="107" y="72" fill="white" fill-opacity=".48" font-family="Arial,Helvetica,sans-serif" font-size="14">Sky Bozum Bilgi Merkezi</text></g>
<g><rect x="794" y="188" width="274" height="288" rx="42" fill="url(#card)" stroke="white" stroke-opacity=".16"/><circle cx="931" cy="325" r="83" fill="none" stroke="white" stroke-width="10"/><circle cx="931" cy="325" r="41" fill="#e11d48" fill-opacity=".35" stroke="#fb7185" stroke-width="7"/><path d="M834 244v164M854 244v62M814 244v62M834 306c-20 0-32-16-32-38v-24M834 306c20 0 32-16 32-38v-24M1024 244v164M1001 244c0 58 6 84 23 84" fill="none" stroke="white" stroke-width="8" stroke-linecap="round"/></g>
<g transform="translate(74 574)"><rect width="280" height="39" rx="19.5" fill="white" fill-opacity=".05"/><text x="18" y="25" fill="white" fill-opacity=".5" font-family="Arial,Helvetica,sans-serif" font-size="13" font-weight="700" letter-spacing="1.3">SKY BOZUM • PREMIUM GUIDE</text></g>
</svg>