<svg xmlns="http://www.w3.org/2000/svg" width="1200" height="675" viewBox="0 0 1200 675"><defs><linearGradient id="bg" x1="0" y1="0" x2="1" y2="1"><stop stop-color="#111722"/><stop offset="1" stop-color="#07090e"/></linearGradient><radialGradient id="g1"><stop stop-color="#f43f5e" stop-opacity=".42"/><stop offset="1" stop-color="#f43f5e" stop-opacity="0"/></radialGradient><radialGradient id="g2"><stop stop-color="#8b5cf6" stop-opacity=".30"/><stop offset="1" stop-color="#8b5cf6" stop-opacity="0"/></radialGradient><filter id="blur"><feGaussianBlur stdDeviation="30"/></filter></defs><rect width="1200" height="675" fill="url(#bg)"/><circle cx="220" cy="110" r="270" fill="url(#g1)" filter="url(#blur)"/><circle cx="1020" cy="570" r="300" fill="url(#g2)" filter="url(#blur)"/><g opacity=".08" stroke="#fff"><path d="M0 120h1200M0 240h1200M0 360h1200M0 480h1200M0 600h1200"/><path d="M120 0v675M240 0v675M360 0v675M480 0v675M600 0v675M720 0v675M840 0v675M960 0v675M1080 0v675"/></g><g><rect x="185" y="160" width="830" height="355" rx="42" fill="#101620" stroke="#fff" stroke-opacity=".14"/><rect x="225" y="205" width="400" height="265" rx="28" fill="url(#g1)" stroke="#fb7185" stroke-opacity=".35"/><text x="270" y="280" fill="#fff" font-family="Arial" font-size="30" font-weight="700">DIGITAL GIFT</text><text x="270" y="330" fill="#fbcfe8" font-family="Arial" font-size="20">Secure code • Instant delivery</text><rect x="270" y="385" width="260" height="26" rx="13" fill="#fff" fill-opacity=".13"/><g transform="translate(700 220)"><rect width="230" height="230" rx="34" fill="#0b0e14" stroke="#a78bfa" stroke-opacity=".4"/><path d="M58 112h114M115 55v114" stroke="#c4b5fd" stroke-width="16" stroke-linecap="round"/><circle cx="115" cy="115" r="72" fill="none" stroke="#8b5cf6" stroke-width="3" stroke-dasharray="8 10"/></g><circle cx="1030" cy="135" r="58" fill="#10b981" fill-opacity=".18"/><path d="M1005 136l17 17 36-42" fill="none" stroke="#6ee7b7" stroke-width="10" stroke-linecap="round" stroke-linejoin="round"/></g></svg>