<svg xmlns="http://www.w3.org/2000/svg" width="1200" height="675" viewBox="0 0 1200 675"><defs><linearGradient id="bg" x1="0" y1="0" x2="1" y2="1"><stop stop-color="#111722"/><stop offset="1" stop-color="#07090e"/></linearGradient><radialGradient id="g1"><stop stop-color="#f43f5e" stop-opacity=".42"/><stop offset="1" stop-color="#f43f5e" stop-opacity="0"/></radialGradient><radialGradient id="g2"><stop stop-color="#8b5cf6" stop-opacity=".30"/><stop offset="1" stop-color="#8b5cf6" stop-opacity="0"/></radialGradient><filter id="blur"><feGaussianBlur stdDeviation="30"/></filter><filter id="shadow"><feDropShadow dx="0" dy="20" stdDeviation="22" flood-color="#000" flood-opacity=".45"/></filter></defs><rect width="1200" height="675" fill="url(#bg)"/><circle cx="220" cy="110" r="270" fill="url(#g1)" filter="url(#blur)"/><circle cx="1020" cy="570" r="300" fill="url(#g2)" filter="url(#blur)"/><g opacity=".08" stroke="#fff"><path d="M0 120h1200M0 240h1200M0 360h1200M0 480h1200M0 600h1200"/><path d="M120 0v675M240 0v675M360 0v675M480 0v675M600 0v675M720 0v675M840 0v675M960 0v675M1080 0v675"/></g><g filter="url(#shadow)"><rect x="95" y="180" width="285" height="310" rx="30" fill="#111722" stroke="#fff" stroke-opacity=".12"/><rect x="457" y="180" width="285" height="310" rx="30" fill="#111722" stroke="#fff" stroke-opacity=".12"/><rect x="820" y="180" width="285" height="310" rx="30" fill="#111722" stroke="#fff" stroke-opacity=".12"/><circle cx="237" cy="270" r="42" fill="#f43f5e" fill-opacity=".18"/><text x="237" y="282" text-anchor="middle" fill="#fb7185" font-family="Arial" font-size="34" font-weight="700">1</text><circle cx="600" cy="270" r="42" fill="#8b5cf6" fill-opacity=".18"/><text x="600" y="282" text-anchor="middle" fill="#c4b5fd" font-family="Arial" font-size="34" font-weight="700">2</text><circle cx="962" cy="270" r="42" fill="#10b981" fill-opacity=".18"/><text x="962" y="282" text-anchor="middle" fill="#6ee7b7" font-family="Arial" font-size="34" font-weight="700">3</text><text x="237" y="357" text-anchor="middle" fill="#fff" font-family="Arial" font-size="25" font-weight="700">Özelliği Aç</text><text x="600" y="357" text-anchor="middle" fill="#fff" font-family="Arial" font-size="25" font-weight="700">Limiti Kontrol Et</text><text x="962" y="357" text-anchor="middle" fill="#fff" font-family="Arial" font-size="25" font-weight="700">İşlemi Onayla</text><text x="237" y="400" text-anchor="middle" fill="#8e99aa" font-family="Arial" font-size="17">Resmî operatör kanalından</text><text x="600" y="400" text-anchor="middle" fill="#8e99aa" font-family="Arial" font-size="17">Tutar ve hat durumunu gör</text><text x="962" y="400" text-anchor="middle" fill="#8e99aa" font-family="Arial" font-size="17">Firma ve tutarı doğrula</text><path d="M380 335h77M742 335h78" stroke="#fff" stroke-opacity=".22" stroke-width="4" stroke-dasharray="10 10"/></g></svg>