<svg xmlns="http://www.w3.org/2000/svg" width="1600" height="900" viewBox="0 0 1600 900" role="img" aria-labelledby="title desc">
<title id="title">Steam cüzdan kodu rehberi</title><desc id="desc">Steam cüzdan kodunda para birimi, hesap bölgesi ve mağaza bakiyesi kontrolünü anlatan premium editoryal kapak.</desc>
<defs><linearGradient id="bg" x1="0" y1="0" x2="1" y2="1"><stop stop-color="#061426"/><stop offset=".55" stop-color="#0a2d4d"/><stop offset="1" stop-color="#14608b"/></linearGradient><linearGradient id="cyan" x1="0" y1="0" x2="1" y2="1"><stop stop-color="#75ddff"/><stop offset="1" stop-color="#2ea7e0"/></linearGradient></defs>
<rect width="1600" height="900" rx="42" fill="url(#bg)"/><circle cx="1430" cy="135" r="250" fill="#6fd7ff" opacity=".12"/><path d="M0 760C280 650 490 860 760 760s500-120 840-30v170H0z" fill="#0b2440" opacity=".72"/>
<g font-family="Arial, Helvetica, sans-serif">
<text x="85" y="105" fill="#77dfff" font-size="28" font-weight="700" letter-spacing="5">STEAM • CÜZDAN KODU</text>
<text x="85" y="180" fill="#fff" font-size="62" font-weight="800">Bölge ve para birimi</text><text x="85" y="247" fill="#fff" font-size="62" font-weight="800">kontrolü neden önemli?</text>
<text x="85" y="300" fill="#b7d5e8" font-size="26">Kod, hesap ülkesi ve mağaza para birimi uyumunu karşılaştırın.</text>
<rect x="85" y="365" width="470" height="300" rx="34" fill="#081c31" stroke="#48bee8" stroke-width="2"/>
<text x="125" y="420" fill="#79dcff" font-size="23" font-weight="700">CÜZDAN KODU</text><text x="125" y="485" fill="#fff" font-size="44" font-weight="800">₺500 Steam Bakiyesi</text>
<rect x="125" y="530" width="390" height="68" rx="16" fill="#04111f"/><text x="155" y="574" fill="#d7f3ff" font-size="23" letter-spacing="5">XXXX-XXXX-XXXX</text>
<text x="125" y="635" fill="#9bc1d7" font-size="20">Kod bakiyeye eklenir; doğrudan oyun değildir.</text>
<rect x="625" y="355" width="890" height="410" rx="38" fill="#f3f8fc"/>
<text x="675" y="410" fill="#123a58" font-size="24" font-weight="800">KODU KULLANMADAN ÖNCE</text>
<g>
<rect x="675" y="455" width="790" height="72" rx="18" fill="#dfedf7"/><circle cx="715" cy="491" r="24" fill="url(#cyan)"/><text x="707" y="499" fill="#062b44" font-size="20" font-weight="800">1</text><text x="760" y="482" fill="#14384f" font-size="25" font-weight="700">Hesap bölgesini kontrol et</text><text x="760" y="510" fill="#58758a" font-size="18">Kod ülkesi ile mağaza ülkesi aynı olmalı.</text>
<rect x="675" y="550" width="790" height="72" rx="18" fill="#dfedf7"/><circle cx="715" cy="586" r="24" fill="url(#cyan)"/><text x="707" y="594" fill="#062b44" font-size="20" font-weight="800">2</text><text x="760" y="577" fill="#14384f" font-size="25" font-weight="700">Para birimini doğrula</text><text x="760" y="605" fill="#58758a" font-size="18">TL, USD ve EUR kodları aynı hesapta çalışmayabilir.</text>
<rect x="675" y="645" width="790" height="72" rx="18" fill="#dfedf7"/><circle cx="715" cy="681" r="24" fill="url(#cyan)"/><text x="707" y="689" fill="#062b44" font-size="20" font-weight="800">3</text><text x="760" y="672" fill="#14384f" font-size="25" font-weight="700">Bakiyeyi mağazada kullan</text><text x="760" y="700" fill="#58758a" font-size="18">Oyun, eklenti ve desteklenen içerik koşullarını incele.</text>
</g><text x="85" y="830" fill="#a7cadf" font-size="20">bozumcu.net • Bilgi Merkezi</text></g></svg>
