<svg xmlns="http://www.w3.org/2000/svg" width="1600" height="900" viewBox="0 0 1600 900">
<defs><linearGradient id="bg" x1="0" y1="0" x2="1" y2="1"><stop stop-color="#081525"/><stop offset="1" stop-color="#18214a"/></linearGradient><linearGradient id="g" x1="0" x2="1"><stop stop-color="#ff7a00"/><stop offset="1" stop-color="#7446f2"/></linearGradient></defs>
<rect width="1600" height="900" rx="34" fill="url(#bg)"/><circle cx="1410" cy="120" r="230" fill="#6f45ef" opacity=".12"/><circle cx="120" cy="820" r="260" fill="#ff7a00" opacity=".08"/>
<text x="90" y="90" fill="#ff9a3c" font-size="28" font-family="Arial" font-weight="700">HEPSİPAY HIZLI KREDİ</text><text x="90" y="162" fill="white" font-size="58" font-family="Arial" font-weight="700">Tekliften alışverişe net akış</text><text x="90" y="212" fill="#a9b7cc" font-size="25" font-family="Arial">Başvuru, değerlendirme ve ödeme planını tek ekranda oku.</text>
<g transform="translate(90 300)"><rect width="650" height="430" rx="30" fill="#10253a" stroke="#24445e"/><text x="38" y="58" fill="#90a4bb" font-size="20" font-family="Arial">KİŞİYE ÖZEL ÖRNEK TEKLİF</text><text x="38" y="122" fill="white" font-size="48" font-family="Arial" font-weight="700">₺20.000</text><text x="38" y="160" fill="#ffad58" font-size="24" font-family="Arial">12 ay vadeli örnek plan</text><rect x="38" y="210" width="574" height="92" rx="18" fill="#0a1b2b"/><text x="64" y="246" fill="#8ca2b9" font-size="18" font-family="Arial">AYLIK ÖDEME</text><text x="64" y="284" fill="white" font-size="33" font-family="Arial" font-weight="700">₺2.180</text><rect x="38" y="338" width="574" height="48" rx="14" fill="url(#g)"/><text x="228" y="370" fill="white" font-size="20" font-family="Arial" font-weight="700">Teklif koşullarını incele</text></g>
<g transform="translate(820 285)"><g><circle cx="42" cy="52" r="30" fill="#ff7a00"/><text x="33" y="62" fill="white" font-size="24" font-family="Arial" font-weight="700">1</text><text x="95" y="46" fill="white" font-size="27" font-family="Arial" font-weight="700">Başvuru bilgileri</text><text x="95" y="78" fill="#99abc0" font-size="18" font-family="Arial">Kimlik ve iletişim bilgilerini doğrula.</text></g><path d="M42 92v74" stroke="#334b66" stroke-width="5" stroke-linecap="round"/><g transform="translate(0 145)"><circle cx="42" cy="52" r="30" fill="#25c7ba"/><text x="33" y="62" fill="white" font-size="24" font-family="Arial" font-weight="700">2</text><text x="95" y="46" fill="white" font-size="27" font-family="Arial" font-weight="700">Teklifi karşılaştır</text><text x="95" y="78" fill="#99abc0" font-size="18" font-family="Arial">Vade, aylık ödeme ve toplam geri ödeme.</text></g><path d="M42 237v74" stroke="#334b66" stroke-width="5" stroke-linecap="round"/><g transform="translate(0 290)"><circle cx="42" cy="52" r="30" fill="#7446f2"/><text x="33" y="62" fill="white" font-size="24" font-family="Arial" font-weight="700">3</text><text x="95" y="46" fill="white" font-size="27" font-family="Arial" font-weight="700">Alışverişte kullan</text><text x="95" y="78" fill="#99abc0" font-size="18" font-family="Arial">Onaylanan teklif ödeme adımına taşınır.</text></g></g>
<rect x="820" y="700" width="650" height="74" rx="18" fill="#172c43"/><circle cx="855" cy="737" r="14" fill="#ff9a3c"/><text x="884" y="744" fill="#c8d4df" font-size="19" font-family="Arial">Teklif ve limit kişisel değerlendirmeye göre değişir.</text><text x="90" y="840" fill="#6e8296" font-size="16" font-family="Arial">SKY BOZUM • BİLGİ MERKEZİ</text></svg>