<svg xmlns="http://www.w3.org/2000/svg" width="1200" height="675" viewBox="0 0 1200 675" role="img" aria-labelledby="t d">
<title id="t">Akışkan alışveriş yolculuğu</title>
<desc id="d">Ürün seçimi, ödeme yöntemi ve taksit planının tek alışveriş sahnesinde birleşmesini gösteren vektör kompozisyon.</desc>
<defs>
  <linearGradient id="bg" x1="0" y1="0" x2="1" y2="1">
    <stop offset="0" stop-color="#FFF6EC"/>
    <stop offset="1" stop-color="#EEF4F8"/>
  </linearGradient>
</defs>
<rect width="1200" height="675" rx="36" fill="url(#bg)"/>
<path d="M110 520C300 390 420 520 585 400s330-80 505-220" fill="none" stroke="#4B82FF" stroke-width="24" stroke-linecap="round"/>

<g transform="translate(70 110)">
  <rect width="270" height="300" rx="30" fill="#FFFFFF" stroke="#D6E0E7" stroke-width="4"/>
  <rect x="30" y="40" width="210" height="20" rx="10" fill="#17384E"/>
  <rect x="30" y="96" width="62" height="92" rx="16" fill="#DDE8FF"/>
  <rect x="104" y="96" width="62" height="92" rx="16" fill="#FFE9C0"/>
  <rect x="178" y="96" width="62" height="92" rx="16" fill="#DFF5F1"/>
  <rect x="42" y="215" width="186" height="42" rx="16" fill="#EAF0F4"/>
  <circle cx="62" cy="236" r="10" fill="#4B82FF"/>
  <circle cx="92" cy="236" r="10" fill="#F0B247"/>
  <circle cx="122" cy="236" r="10" fill="#35BCA9"/>
</g>

<g transform="translate(350 300)">
  <path d="M0 28h40l28 118h210l28-94H70" fill="none" stroke="#17384E" stroke-width="18" stroke-linecap="round" stroke-linejoin="round"/>
  <circle cx="110" cy="188" r="22" fill="#17384E"/>
  <circle cx="252" cy="188" r="22" fill="#17384E"/>
  <rect x="102" y="72" width="54" height="54" rx="12" fill="#F0B247"/>
  <rect x="170" y="72" width="54" height="54" rx="12" fill="#35BCA9"/>
</g>

<g transform="translate(645 125)">
  <path d="M0 190l170-140 22 26-170 140z" fill="#D9E6EF"/>
  <path d="M46 222l170-140 22 26-170 140z" fill="#C7D9E6"/>
  <path d="M92 254l170-140 22 26-170 140z" fill="#B4CCDD"/>
  <g fill="#FFFFFF" stroke="#D2DEE7" stroke-width="3">
    <rect x="26" y="86" width="142" height="86" rx="20"/>
    <rect x="72" y="118" width="142" height="86" rx="20"/>
    <rect x="118" y="150" width="142" height="86" rx="20"/>
  </g>
  <g stroke-linecap="round">
    <path d="M56 118h76" stroke="#17384E" stroke-width="12"/>
    <path d="M102 150h76" stroke="#4B82FF" stroke-width="12"/>
    <path d="M148 182h76" stroke="#35BCA9" stroke-width="12"/>
  </g>
</g>

<g transform="translate(930 245)">
  <rect width="190" height="250" rx="30" fill="#17384E"/>
  <rect x="26" y="28" width="138" height="120" rx="20" fill="#F7FAFD"/>
  <path d="M58 88h74" stroke="#C3CFD7" stroke-width="14" stroke-linecap="round"/>
  <circle cx="95" cy="198" r="34" fill="#F0B247"/>
  <path d="M79 198h32M95 182v32" stroke="#FFFFFF" stroke-width="8" stroke-linecap="round"/>
</g>
</svg>