<svg xmlns="http://www.w3.org/2000/svg" width="800" height="450" viewBox="0 0 800 450">
<defs><linearGradient id="bg" x1="0" y1="0" x2="1" y2="1"><stop stop-color="#23100b"/><stop offset="1" stop-color="#0a0d14"/></linearGradient><radialGradient id="g2"><stop stop-color="#ff8a3d" stop-opacity=".5"/><stop offset="1" stop-color="#e83e8c" stop-opacity="0"/></radialGradient><filter id="blur"><feGaussianBlur stdDeviation="30"/></filter></defs>
<rect width="800" height="450" rx="32" fill="url(#bg)"/><path d="M0 365 C190 305 300 430 510 350 C630 305 700 320 800 290 V450 H0Z" fill="#ff8a3d" opacity=".08"/>
<circle cx="90" cy="390" r="145" fill="#e83e8c" opacity=".12" filter="url(#blur)"/><g transform="translate(485 42) rotate(-8)"><rect width="210" height="126" rx="24" fill="white" opacity=".08" stroke="#ff8a3d"/><rect x="24" y="28" width="58" height="12" rx="6" fill="#ff8a3d"/><rect x="24" y="54" width="132" height="8" rx="4" fill="white" opacity=".32"/><rect x="24" y="73" width="92" height="8" rx="4" fill="white" opacity=".18"/></g>
<rect x="42" y="38" width="150" height="30" rx="15" fill="white" opacity=".08"/><text x="58" y="58" fill="#ff8a3d" font-family="Arial, sans-serif" font-size="13" font-weight="700" letter-spacing="1.5">YEMEK KARTLARI</text>
<text x="54" y="135" fill="white" font-family="Arial, sans-serif" font-size="34" font-weight="800"><tspan x="54" dy="0">Ticket Restaurant Nedir?</tspan><tspan x="54" dy="42">Nerelerde Geçer ve Nasıl</tspan><tspan x="54" dy="42">Kullanılır?</tspan></text>
<text x="54" y="356" fill="white" opacity=".62" font-family="Arial, sans-serif" font-size="15">Sky Bozum • Güncel rehber</text>
<text x="720" y="403" text-anchor="end" fill="white" opacity=".16" font-family="Arial, sans-serif" font-size="56" font-weight="800">14</text>
<rect x="42" y="390" width="716" height="1" fill="white" opacity=".08"/>
</svg>